<svg width="129" height="27" viewBox="0 0 129 27" fill="none" xmlns="http://www.w3.org/2000/svg">
<path d="M16.4213 5.86827C16.598 8.70511 15.4742 10.8422 13.0499 12.2795C13.3277 12.5191 13.5802 12.7838 13.8075 13.0738C14.9818 14.5868 15.6005 16.3204 15.6636 18.2747C15.7268 20.229 15.1965 22.0067 14.0727 23.608C11.8251 26.4196 8.95246 27.3589 5.45481 26.4259C3.8512 25.8963 2.54432 25.0201 1.53417 23.7971C0.524015 22.5615 0.0126269 21.08 0 19.3527C0.0505075 18.6088 0.353553 18.1108 0.909135 17.8586C1.47734 17.6065 2.03924 17.6065 2.59482 17.8586C3.15041 18.1108 3.44714 18.6088 3.48502 19.3527C3.53553 20.6892 4.07217 21.7104 5.09495 22.4165C6.13035 23.1225 7.26677 23.4062 8.5042 23.2675C9.75427 23.1162 10.7265 22.4354 11.421 21.225C11.9513 20.1533 12.1786 19.0438 12.1029 17.8965C12.0397 16.7365 11.5662 15.7405 10.6823 14.9083C9.63431 14.0384 8.44107 13.5025 7.10262 13.3008C6.59755 13.263 6.09247 13.2188 5.58739 13.1684C5.57477 13.1684 5.56214 13.1684 5.54951 13.1684C5.52426 13.1558 5.49901 13.1495 5.47375 13.1495C4.7919 12.9982 4.32471 12.6515 4.07217 12.1093C3.83226 11.5672 3.82595 11.0439 4.05323 10.5396C4.28051 10.0227 4.75402 9.73267 5.47375 9.66963C5.48638 9.66963 5.49269 9.66963 5.49269 9.66963C5.49269 9.66963 5.49901 9.66963 5.51163 9.66963C5.52426 9.66963 5.53057 9.66963 5.53057 9.66963C5.5432 9.66963 5.55583 9.66963 5.56846 9.66963C6.22505 9.66963 6.90059 9.72637 7.59507 9.83984C8.85776 9.91549 10.0194 9.76419 11.0801 9.38595C12.1407 9.0077 12.7405 8.18817 12.8794 6.92736C12.9931 5.41438 12.3428 4.45616 10.9286 4.0527C10.3225 3.88879 9.71639 3.87618 9.1103 4.01487C8.5042 4.14095 8.01176 4.48137 7.63295 5.03613C7.17838 5.64132 6.64174 5.9124 6.02302 5.84936C5.4043 5.77371 4.91817 5.49003 4.56462 4.99831C4.22369 4.50659 4.23632 3.93292 4.6025 3.27729C5.70104 1.71388 7.12787 0.812397 8.88301 0.572842C10.6508 0.320679 12.2796 0.654795 13.7696 1.57519C15.2596 2.49559 16.1435 3.92661 16.4213 5.86827Z" fill="white"/>
<path d="M22.6526 26.5394C21.6298 26.7789 20.6323 26.7285 19.6601 26.3881C18.6878 26.035 17.9175 25.3983 17.3493 24.4779C16.8821 23.6206 16.6485 22.7128 16.6485 21.7546C16.6359 20.7837 16.7243 19.8318 16.9137 18.8988C17.4567 16.2637 18.1448 13.6601 18.9782 11.0881C19.1424 10.5711 19.3002 10.0542 19.4517 9.53725C19.7042 8.83119 20.1336 8.43403 20.7397 8.34578C21.3584 8.24491 21.9013 8.3899 22.3685 8.78076C22.8483 9.17161 22.9999 9.73267 22.8231 10.4639C22.6842 10.9305 22.5453 11.397 22.4064 11.8635C21.6993 14.0699 21.0806 16.3015 20.5503 18.5584C20.5503 18.571 20.5439 18.5836 20.5313 18.5962C20.3293 19.4284 20.1967 20.2542 20.1336 21.0737C20.1209 21.3763 20.1272 21.6852 20.1525 22.0004C20.1525 22.0004 20.1525 22.013 20.1525 22.0382C20.1651 22.0508 20.1714 22.0761 20.1714 22.1139C20.1841 22.1517 20.1967 22.1895 20.2093 22.2274C20.222 22.2904 20.2346 22.3534 20.2472 22.4165C20.2598 22.4669 20.2661 22.5047 20.2661 22.53C20.2788 22.53 20.2851 22.5363 20.2851 22.5489C20.2977 22.5615 20.304 22.5741 20.304 22.5867C20.3167 22.6119 20.3293 22.6371 20.3419 22.6623C20.3672 22.675 20.3861 22.6939 20.3987 22.7191C20.4114 22.7443 20.424 22.7632 20.4366 22.7758C20.4492 22.7884 20.4555 22.801 20.4555 22.8136C20.4555 22.8136 20.4492 22.8073 20.4366 22.7947C20.4871 22.8452 20.5439 22.8956 20.6071 22.946C20.6071 22.9586 20.6134 22.9649 20.626 22.9649C20.6386 22.9776 20.6576 22.9902 20.6828 23.0028C20.8975 23.1415 21.0869 23.2234 21.251 23.2486C21.4278 23.2612 21.6551 23.2171 21.9329 23.1162C22.9178 22.7002 23.7385 22.0004 24.3951 21.017C25.0517 20.0209 25.5884 19.0501 26.0051 18.1045C26.3586 17.4489 26.8258 17.1526 27.4066 17.2156C28.0001 17.2661 28.4862 17.5497 28.865 18.0667C29.2439 18.571 29.2944 19.1762 29.0166 19.8822C28.4105 21.2691 27.5771 22.6182 26.5164 23.9295C25.4684 25.2407 24.1805 26.1107 22.6526 26.5394ZM22.6526 5.22525C22.1728 5.22525 21.7624 5.05504 21.4215 4.71462C21.0806 4.3616 20.9101 3.95183 20.9101 3.48533C20.9101 3.46011 20.9101 3.4349 20.9101 3.40968C20.9101 2.93057 21.0806 2.5208 21.4215 2.18038C21.7624 1.82735 22.1728 1.65084 22.6526 1.65084C23.1324 1.65084 23.5428 1.82735 23.8837 2.18038C24.2247 2.5208 24.3951 2.93057 24.3951 3.40968C24.3951 3.4349 24.3951 3.46011 24.3951 3.48533C24.3951 3.95183 24.2247 4.3616 23.8837 4.71462C23.5428 5.05504 23.1324 5.22525 22.6526 5.22525Z" fill="white"/>
<path d="M49.3585 23.589C47.7044 26.0602 45.3873 27.1887 42.4074 26.9743C41.1068 26.8357 39.882 26.4511 38.733 25.8207C37.5965 25.1777 36.7316 24.2447 36.1381 23.0217C35.229 20.8153 35.2543 18.571 36.2139 16.2889C37.1862 14.0068 38.9792 12.8343 41.5929 12.7712C42.3379 12.8469 42.8367 13.1747 43.0892 13.7547C43.3418 14.322 43.3418 14.8831 43.0892 15.4379C42.8367 15.98 42.3379 16.2574 41.5929 16.27C40.7596 16.27 40.1156 16.5915 39.661 17.2345C39.2191 17.8649 38.9729 18.5773 38.9224 19.3716C38.8719 20.2164 39.036 20.9918 39.4148 21.6978C39.8062 22.4039 40.425 22.9082 41.271 23.2108C42.3569 23.5638 43.386 23.6017 44.3582 23.3243C45.3431 23.0469 46.0944 22.3787 46.6121 21.3196C47.3319 19.4031 47.1172 17.5939 45.9682 15.8918C45.3368 15.0092 44.5981 14.114 43.7521 13.2062C42.6662 12.0589 41.7066 10.8422 40.8732 9.55616C40.0398 8.27013 39.6737 6.87692 39.7747 5.37655C40.2166 2.69101 41.5361 1.05195 43.7332 0.459369C45.9303 -0.145823 48.0516 0.320679 50.0972 1.85887C50.1603 1.77062 50.2297 1.68866 50.3055 1.61302C50.3307 1.5878 50.356 1.56258 50.3813 1.53737C50.7096 1.18434 51.1136 1.01413 51.5934 1.02674C52.0859 1.03934 52.5026 1.20955 52.8435 1.53737C53.197 1.903 53.3612 2.31277 53.3359 2.76666C53.3233 3.22056 53.1592 3.63032 52.8435 3.99596C52.591 4.28595 52.3384 4.57593 52.0859 4.86592C51.2525 5.82414 50.4191 6.77606 49.5858 7.72167C49.2448 8.0747 48.8345 8.24491 48.3546 8.2323C47.8748 8.21969 47.4581 8.04948 47.1046 7.72167C46.7637 7.35603 46.5995 6.94627 46.6121 6.49238C46.6248 6.03848 46.7889 5.62872 47.1046 5.26308C47.3319 4.99831 47.5592 4.73984 47.7864 4.48768C47.0414 3.92031 46.1891 3.63032 45.2295 3.61771C44.2825 3.5925 43.6511 4.09682 43.3355 5.13069C43.1839 6.00066 43.3607 6.8454 43.8658 7.66494C44.3709 8.48447 44.9201 9.21574 45.5136 9.85876C45.5767 9.93441 45.6399 10.0101 45.703 10.0857C45.9555 10.3757 46.2081 10.6657 46.4606 10.9557C47.8748 12.4056 49.0112 14.0321 49.8699 15.835C50.9053 18.508 50.7348 21.0926 49.3585 23.589Z" fill="white"/>
<path d="M59.6999 26.842C57.9826 26.8672 56.5179 26.3755 55.3057 25.3668C54.1062 24.3455 53.4306 22.9649 53.2791 21.225C53.2034 18.9303 53.6074 16.7176 54.4913 14.5868C54.8954 13.5277 55.4131 12.4813 56.0444 11.4474C56.6758 10.4135 57.4902 9.58768 58.4877 8.96988C59.3085 8.50338 60.1987 8.26382 61.1583 8.25121C62.1306 8.23861 62.9829 8.56011 63.7152 9.21574C64.4855 10.0101 64.8327 10.8989 64.757 11.8824C64.6938 12.8658 64.3971 13.7988 63.8668 14.6814C63.4501 15.2992 62.9324 15.5766 62.3137 15.5135C61.7076 15.4505 61.2214 15.1731 60.8553 14.6814C60.5017 14.1771 60.4954 13.5908 60.8363 12.9225C60.8489 12.8973 60.8616 12.8784 60.8742 12.8658C61.0762 12.5632 61.2214 12.2354 61.3098 11.8824C61.3098 11.8445 61.3098 11.813 61.3098 11.7878C61.2846 11.7752 61.2467 11.7626 61.1962 11.75C61.1583 11.7374 61.1078 11.7311 61.0447 11.7311C60.5522 11.7815 60.104 12.0274 59.6999 12.4686C59.3085 12.8973 58.9802 13.3449 58.715 13.8114C58.0458 14.9335 57.4839 16.2637 57.0293 17.8019C56.5874 19.3401 56.5684 20.7207 56.9725 21.9437C57.0609 22.1832 57.2124 22.4165 57.4271 22.6434C57.6543 22.8704 57.8753 23.0217 58.09 23.0973C58.8855 23.4125 59.681 23.4567 60.4765 23.2297C61.7139 22.8515 62.7367 22.2021 63.5448 21.2818C64.3053 20.4173 65.1069 19.3387 65.6123 18.2723C65.6523 18.1878 65.6905 18.1033 65.7267 18.0191C65.9413 17.5778 66.0765 17.4489 66.5563 17.348C67.0487 17.2471 67.497 17.3039 67.9011 17.5182C68.343 17.7956 68.6082 18.1549 68.6965 18.5962C68.7849 19.0249 68.7281 19.4662 68.5261 19.9201C67.7306 21.7356 66.5752 23.3117 65.06 24.6481C63.5448 25.9846 61.7581 26.7159 59.6999 26.842ZM61.3098 11.75C61.3098 11.7122 61.3035 11.6869 61.2909 11.6743C61.2909 11.6491 61.2909 11.6428 61.2909 11.6554C61.2909 11.6554 61.2909 11.6617 61.2909 11.6743C61.2909 11.6869 61.2972 11.7122 61.3098 11.75Z" fill="white"/>
<path d="M67.276 25.3479C66.9604 26.0161 66.4995 26.4007 65.8934 26.5015C65.2873 26.6024 64.7633 26.47 64.3213 26.1044C63.8794 25.7387 63.7405 25.1777 63.9046 24.4212C64.2203 23.3243 64.536 22.2211 64.8517 21.1115C66.7331 14.4796 68.6145 7.85406 70.4959 1.23477C70.7484 0.528713 71.1777 0.131556 71.7838 0.0432991C72.4025 -0.0575662 72.9455 0.0874276 73.4127 0.478281C73.8799 0.869134 74.0314 1.4302 73.8673 2.16147C73.4506 3.66184 73.0276 5.16852 72.5983 6.6815C72.2573 7.85406 71.9227 9.02662 71.5944 10.1992C71.8091 9.99745 72.03 9.79572 72.2573 9.59398C73.2801 8.74924 74.3913 8.30165 75.5908 8.25121C76.7904 8.18817 77.8889 8.64207 78.8864 9.6129C79.5304 10.319 79.8777 11.1007 79.9282 11.958C79.9913 12.8028 79.884 13.6664 79.6062 14.549C79.3031 15.5198 78.9622 16.4843 78.5834 17.4426C78.2425 18.3125 77.9268 19.1888 77.6364 20.0714C77.3333 20.9287 77.1692 21.7293 77.1439 22.4732C77.1439 22.4732 77.1439 22.4858 77.1439 22.511C77.1439 22.5237 77.1439 22.5426 77.1439 22.5678C77.1439 22.6056 77.1439 22.6434 77.1439 22.6813C77.1566 22.7191 77.1629 22.7506 77.1629 22.7758C77.1629 22.801 77.1629 22.8136 77.1629 22.8136C77.1629 22.8136 77.1566 22.7947 77.1439 22.7569C77.1692 22.8578 77.1944 22.9523 77.2197 23.0406C77.2197 23.0154 77.2197 23.0091 77.2197 23.0217C77.2323 23.0217 77.2449 23.028 77.2576 23.0406C77.2702 23.0532 77.2828 23.0658 77.2955 23.0784C77.3081 23.091 77.3144 23.1036 77.3144 23.1162C77.3144 23.1288 77.3081 23.1352 77.2955 23.1352C77.2828 23.1225 77.2576 23.0973 77.2197 23.0595C77.2576 23.0973 77.2765 23.1225 77.2765 23.1352C77.3144 23.1478 77.3586 23.173 77.4091 23.2108C77.548 23.2864 77.6743 23.3369 77.7879 23.3621C77.9142 23.3873 77.9963 23.3936 78.0341 23.381C78.2109 23.3432 78.3561 23.2991 78.4698 23.2486C78.5834 23.1982 78.7286 23.1162 78.9054 23.0028C79.4862 22.5615 79.9976 22.0193 80.4395 21.3763C80.7678 20.8972 81.0772 20.3992 81.3676 19.8822C81.7464 19.1384 82.1884 18.4575 82.6934 17.8397C83.2238 17.2976 83.7667 17.1337 84.3223 17.348C84.8905 17.5497 85.2883 17.9469 85.5156 18.5395C85.7428 19.1195 85.6292 19.7057 85.1746 20.2983C85.1999 20.2605 85.2314 20.229 85.2693 20.2038C85.3198 20.1407 85.3514 20.0966 85.364 20.0714C85.3893 20.0462 85.4019 20.0398 85.4019 20.0525C85.4019 20.0525 85.3956 20.0588 85.383 20.0714C85.3577 20.1092 85.3261 20.1533 85.2883 20.2038C85.2504 20.2416 85.2188 20.2857 85.1936 20.3361C85.1304 20.4496 85.0673 20.5631 85.0042 20.6766C84.9537 20.7648 84.9031 20.8468 84.8526 20.9224C84.537 21.4898 84.2024 22.0445 83.8488 22.5867C83.2932 23.4441 82.6493 24.251 81.9169 25.0075C81.1845 25.764 80.3259 26.3124 79.341 26.6528C78.3435 26.9428 77.3523 26.9176 76.3674 26.5772C75.3825 26.2242 74.6312 25.5811 74.1135 24.6481C73.5453 23.3747 73.4316 22.0319 73.7726 20.6198C74.1135 19.1951 74.587 17.8019 75.1931 16.4402C75.6098 15.4442 75.957 14.5049 76.2348 13.6223C76.2979 13.3701 76.3611 13.118 76.4242 12.8658C76.4242 12.8532 76.4242 12.8217 76.4242 12.7712C76.4368 12.7334 76.4431 12.6956 76.4431 12.6578C76.4558 12.6199 76.4621 12.5884 76.4621 12.5632C76.4621 12.5254 76.4621 12.5065 76.4621 12.5065C76.4747 12.5065 76.481 12.5254 76.481 12.5632C76.4936 12.4245 76.4936 12.2921 76.481 12.166C76.481 12.1534 76.481 12.1471 76.481 12.1471C76.3674 12.0211 76.2348 11.9139 76.0833 11.8256C75.957 11.75 75.8497 11.6995 75.7613 11.6743C75.6729 11.6491 75.5656 11.6617 75.4393 11.7122C74.6438 12.0021 73.9557 12.538 73.3748 13.3197C72.794 14.0888 72.2889 14.8642 71.8596 15.6459C71.7712 15.8098 71.6828 15.9611 71.5944 16.0998C70.5843 17.8902 69.6814 19.7373 68.8859 21.6411C68.2925 22.9776 67.7558 24.2132 67.276 25.3479ZM77.2197 23.0595C77.2197 23.0595 77.2197 23.0532 77.2197 23.0406C77.2071 23.0406 77.2008 23.0406 77.2008 23.0406C77.2008 23.0406 77.2071 23.0469 77.2197 23.0595Z" fill="white"/>
<path d="M98.9586 18.5332C99.249 17.8397 99.7036 17.4489 100.322 17.3606C100.954 17.2723 101.497 17.4236 101.951 17.8145C102.418 18.1927 102.545 18.7412 102.33 19.4599C101.156 22.4984 98.946 24.2005 95.7009 24.5662C94.9685 24.604 94.2614 24.4968 93.5796 24.2447C91.9886 26.2241 89.842 26.9176 87.1399 26.325C84.8165 25.5559 83.3581 24.169 82.7646 22.1643C82.1712 20.1596 82.1459 18.054 82.6889 15.8476C83.2192 13.6412 84.2294 11.7121 85.7193 10.0605C87.2093 8.39619 89.2044 7.83513 91.7045 8.37728C94.0278 9.12116 95.5052 10.5018 96.1365 12.5191C96.7679 14.5364 96.812 16.6419 96.2691 18.8357C96.0923 19.5796 95.8461 20.3298 95.5304 21.0863C95.7325 21.0737 95.9282 21.0359 96.1176 20.9728C97.4813 20.6324 98.4283 19.8192 98.9586 18.5332ZM88.352 23.0343C89.3874 23.173 90.2334 22.883 90.89 22.1643C91.1993 21.8259 91.8 20.925 91.8 20.925C92.205 20.25 92.4325 19.8009 92.7026 18.9909C92.7388 18.882 92.8375 18.4509 92.9545 17.6821C93.1469 16.4179 93.2386 15.1983 92.9735 13.9753C92.7209 12.7523 91.8876 11.9832 90.4734 11.668C89.1223 11.5671 88.1058 12.1156 87.424 13.3134C86.7547 14.4985 86.3002 15.6522 86.0603 16.7743C85.732 18.0225 85.6688 19.2896 85.8709 20.5757C86.0855 21.8617 86.9126 22.6812 88.352 23.0343Z" fill="white"/>
<path d="M116.334 18.5397C116.625 17.8462 116.984 17.4416 117.602 17.3533C118.234 17.2651 118.777 17.4164 119.231 17.8072C119.698 18.1855 119.825 18.7339 119.61 19.4526C118.436 22.4911 116.226 24.1932 112.981 24.5589C112.249 24.5967 111.541 24.4895 110.86 24.2374C109.269 26.2169 107.122 26.9103 104.42 26.3177C102.097 25.5486 100.638 24.1617 100.045 22.157C99.4512 20.1523 99.4259 18.0468 99.9689 15.8403C100.499 13.6339 101.509 11.7049 102.999 10.0532C104.489 8.38891 106.484 7.82785 108.984 8.37C111.308 9.11388 112.785 10.4945 113.417 12.5118C114.048 14.5291 114.092 16.6347 113.549 18.8285C113.372 19.5724 113.126 20.3225 112.81 21.079C113.012 21.0664 113.208 21.0286 113.398 20.9656C114.761 20.6251 115.804 19.8257 116.334 18.5397ZM105.632 23.027C106.667 23.1657 107.74 22.4501 108.31 22.0886C109.08 21.6 109.62 20.385 109.62 20.385C109.62 20.385 109.782 19.98 109.93 19.3886C110.2 18.3086 110.194 18.2673 110.335 17.6336C110.613 16.3854 110.519 15.191 110.253 13.968C110.001 12.745 109.168 11.9759 107.753 11.6607C106.402 11.5599 105.386 12.1083 104.704 13.3061C104.035 14.4913 103.58 15.6449 103.34 16.767C103.012 18.0152 102.949 19.2824 103.151 20.5684C103.366 21.8544 104.193 22.674 105.632 23.027Z" fill="white"/>
<path d="M118.339 26.1611C116.874 25.2911 116.104 23.9988 116.028 22.2841C116.054 20.1659 116.395 18.073 117.051 16.0052C117.127 15.7405 117.196 15.4757 117.26 15.2109C118.055 12.185 118.869 9.16531 119.703 6.15195C120.17 4.51289 120.625 2.87383 121.067 1.23477C121.306 0.516105 121.729 0.112644 122.336 0.0243868C122.942 -0.0638703 123.478 0.0874276 123.945 0.478281C124.425 0.856526 124.589 1.41759 124.438 2.16147C123.983 3.81314 123.529 5.46481 123.074 7.11648C122.329 9.80202 121.597 12.4876 120.877 15.1731C120.524 16.497 120.202 17.8334 119.911 19.1825C119.798 19.649 119.703 20.1281 119.627 20.6198C119.614 20.7333 119.608 20.7963 119.608 20.8089C119.596 20.8342 119.589 20.8846 119.589 20.9602C119.564 21.1242 119.551 21.2881 119.551 21.452C119.526 21.7798 119.526 22.1076 119.551 22.4354C119.551 22.4606 119.558 22.4858 119.57 22.511C119.583 22.5741 119.596 22.6308 119.608 22.6813C119.596 22.656 119.596 22.6434 119.608 22.6434C119.621 22.6434 119.633 22.656 119.646 22.6813C119.659 22.7065 119.671 22.738 119.684 22.7758C119.709 22.801 119.722 22.8263 119.722 22.8515C119.734 22.8641 119.734 22.8704 119.722 22.8704C119.709 22.8704 119.684 22.8515 119.646 22.8136C119.697 22.8641 119.747 22.9145 119.798 22.9649C120.101 23.1667 120.397 23.2549 120.688 23.2297C120.978 23.2045 121.332 23.0532 121.748 22.7758C123.301 21.5402 124.438 19.9831 125.158 18.1045C125.511 17.4489 125.985 17.1526 126.578 17.2156C127.172 17.2661 127.658 17.5497 128.037 18.0667C128.415 18.571 128.466 19.1762 128.188 19.8822C127.645 21.0674 126.881 22.2904 125.896 23.5512C124.924 24.7994 123.788 25.7324 122.487 26.3502C121.199 26.968 119.816 26.905 118.339 26.1611Z" fill="white"/>
<path d="M20.3313 8.48648L13.931 13.5125C14.0943 13.5125 14.8837 15.0679 15.258 15.8456L18.4224 13.9182L20.3313 8.48648Z" fill="white"/>
<path d="M50.2051 20.3967H50.1994C49.9684 20.9233 48.525 22.9123 48.8418 23.3984C49.1587 23.8846 52.6343 22.9973 53.6905 22.4301L53.4966 18.9442C52.3132 20.3968 50.6748 20.3967 50.2051 20.3967Z" fill="white"/>
<path d="M15.1026 15.9026L13.9585 13.5001L19.7932 8.92383L18.0771 14.1293L15.1026 15.9026Z" fill="url(#paint0_linear_173_1479)"/>
<path d="M53.3695 19.1055C52.5687 19.9635 51.4818 20.4211 50.4522 20.3639C50.4522 21.1877 49.6895 22.8237 49.3081 23.5101C50.0861 23.6932 52.5115 22.9572 53.5984 22.5377C53.5068 22.4461 53.3695 20.1923 53.3695 19.1055Z" fill="url(#paint1_linear_173_1479)"/>
<path d="M93.6901 24.2996C92.546 24.0708 91.4454 22.7308 91.045 22.1396C90.187 22.9977 89.3289 23.0549 89.1001 23.0549C89.7484 23.9702 91.2098 25.9013 91.6674 25.9013C91.8962 25.9013 93.1501 24.8396 93.6901 24.2996Z" fill="url(#paint2_linear_173_1479)"/>
<path d="M110.835 24.2996C109.691 24.0708 108.67 22.7308 108.27 22.1396C107.595 22.8146 106.785 22.9496 106.11 23.0846C106.758 23.9999 108.366 26.0306 108.81 25.9196C109.35 25.7846 110.43 24.8396 110.835 24.2996Z" fill="url(#paint3_linear_173_1479)"/>
<path d="M116.237 23.568C115.436 23.9493 113.652 24.6891 112.919 24.5976L113.606 20.9366C113.949 20.8794 114.819 20.5705 115.551 19.7925C115.8 19.4763 116.277 18.8142 116.424 18.4076C116.439 18.3497 116.453 18.2965 116.466 18.248C116.46 18.2946 116.446 18.3484 116.424 18.4076C116.197 19.3294 115.893 21.4149 116.237 23.568Z" fill="url(#paint4_linear_173_1479)"/>
<defs>
<linearGradient id="paint0_linear_173_1479" x1="18.3632" y1="10.8115" x2="15.0454" y2="14.587" gradientUnits="userSpaceOnUse">
<stop stop-opacity="0.19"/>
<stop offset="1" stop-opacity="0"/>
</linearGradient>
<linearGradient id="paint1_linear_173_1479" x1="53.4267" y1="20.5928" x2="50.109" y2="21.8512" gradientUnits="userSpaceOnUse">
<stop stop-opacity="0.1"/>
<stop offset="1" stop-opacity="0"/>
</linearGradient>
<linearGradient id="paint2_linear_173_1479" x1="93.5482" y1="23.3678" x2="90.8699" y2="25.2535" gradientUnits="userSpaceOnUse">
<stop stop-opacity="0.15"/>
<stop offset="1" stop-opacity="0"/>
</linearGradient>
<linearGradient id="paint3_linear_173_1479" x1="110.617" y1="23.4227" x2="107.939" y2="25.3084" gradientUnits="userSpaceOnUse">
<stop stop-opacity="0.15"/>
<stop offset="1" stop-opacity="0"/>
</linearGradient>
<linearGradient id="paint4_linear_173_1479" x1="116.324" y1="20.3808" x2="113.33" y2="21.0355" gradientUnits="userSpaceOnUse">
<stop stop-opacity="0.1"/>
<stop offset="1" stop-opacity="0"/>
</linearGradient>
</defs>
</svg>
